<svg width="65" height="60" viewBox="0 0 65 60" fill="none" xmlns="http://www.w3.org/2000/svg">
<path d="M49.7635 15.1747C49.7635 7.86729 44.4243 1.11969 36.8953 0.176793C35.9354 0.0589306 35.5755 0 34.5257 0L34.0157 1.56167C33.4158 1.50274 33.3558 1.44381 32.7259 1.44381H32.186L23.9071 4.65555L24.507 7.8673H30.6262C30.9862 8.16195 31.1661 8.86912 31.1661 9.3995C31.1661 10.3424 30.4462 10.8138 29.5163 10.8138H25.077C25.197 11.4032 25.2869 11.8157 25.2569 11.9335C25.137 12.405 22.5273 14.0845 22.5273 14.0845C22.5273 14.0845 24.657 13.4363 25.7968 13.289C27.8666 12.9648 29.2464 13.4657 30.4462 13.2595C31.4661 13.0827 32.8159 12.4345 32.8159 12.4345L32.006 13.9667C34.1657 13.5541 35.7855 11.6978 35.7855 9.45843C35.7855 8.92805 35.6955 8.42714 35.5455 7.95569C36.4454 8.78073 36.6554 10.0477 36.6554 11.3737C36.6554 13.9077 34.6756 15.5578 32.096 15.5578C29.2464 15.5578 27.3566 15.1158 24.1171 15.1158C21.6874 15.1158 19.8877 15.7641 18.1779 16.8543C18.1779 16.8543 17.1881 15.5873 15.1483 12.9943C13.0186 10.3129 11.5488 7.89676 9.86907 7.71997C7.67937 7.48424 6.92949 7.42531 4.49982 7.6905C2.82006 7.8673 4.10988 12.0514 4.10988 12.0514C4.10988 12.0514 4.31985 11.1969 4.58981 10.8138C4.76978 10.5487 5.09974 10.1951 5.09974 10.1951L5.90963 11.963C6.53954 12.788 8.99919 12.6407 9.47912 12.9648C10.199 13.4657 11.3089 14.8801 11.9688 16.4712C12.8087 18.416 13.4986 21.3036 13.4986 21.3036C13.4986 21.3036 13.2286 21.1857 12.5387 20.9205C10.7689 20.2723 8.9392 19.9187 7.82935 20.4491C5.84963 21.4214 5.18973 21.775 3.29999 23.2778C1.98017 24.3385 5.24972 27.0788 5.24972 27.0788C5.24972 27.0788 5.09974 26.3422 5.09974 25.8707C5.09974 25.5466 5.18972 25.0752 5.18972 25.0752L6.8395 26.1359C7.82936 26.4895 8.96919 24.7805 10.379 25.0752C11.5488 25.3109 12.8087 26.3717 13.2886 26.7252C13.5286 29.4361 14.7884 31.8522 16.7081 33.5907C17.338 33.1193 18.4479 32.3826 19.2578 32.1174C20.3676 31.7344 32.2459 30.8504 32.2459 30.8504L30.9561 28.5521L42.4145 25.0752V28.0806C45.8641 25.3404 48.0838 21.1268 48.0838 16.4123C48.0838 16.1766 48.0238 15.4989 47.9638 15.0569L49.7935 16.1766C49.7035 15.9998 49.7635 15.381 49.7635 15.1747ZM32.2459 3.00548C33.6558 2.82869 34.8256 3.06441 35.9055 3.47693C33.2958 5.09754 31.916 4.74395 32.2459 3.00548ZM19.5877 30.2316C16.1682 25.2225 19.2578 21.333 21.3875 20.0955L20.6376 19.2115C21.8374 18.5044 23.8771 18.3276 25.3769 18.3276C26.9367 18.3276 28.8864 18.8874 30.1163 19.6535C22.8873 19.2999 19.2278 24.1912 19.5877 30.2316ZM27.8366 28.1396L26.5768 27.2851L23.8471 29.2003V29.0235C23.8471 25.6645 27.2967 21.7456 33.8058 23.3367C29.0964 24.0733 27.6866 25.9886 27.8366 28.1396ZM35.4255 19.8892C44.3343 15.3221 42.0246 7.54318 38.815 4.2725C45.7441 7.80837 47.1239 20.3607 35.4255 19.8892Z" fill="#1D053D"/>
<path d="M24.9857 10.4603C24.9857 10.4603 20.7562 10.4898 19.4363 10.4898C17.5766 10.4898 17.2466 7.16016 17.2466 7.16016C17.2466 7.16016 18.4164 8.30931 19.1664 8.30931H24.5957L24.9857 10.4603Z" fill="#1D053D"/>
<path d="M0 43.0481C1.10984 43.0481 4.31938 42.9892 7.28895 42.6356C10.9484 42.2231 15.3878 37.9505 18.5973 36.0058C19.7672 35.2986 28.4359 34.3263 31.5855 33.9727C36.4748 33.4423 47.4232 34.7977 47.4232 34.7977C47.4232 34.7977 32.3653 34.5915 26.7861 37.0666C21.8968 39.2176 16.9776 44.6098 15.4478 45.3759C14.038 46.083 10.6185 47.3206 9.65862 47.4974C8.93872 47.6152 6.86902 47.8215 5.90915 47.9099L0 43.0481Z" fill="#1D053D"/>
<path d="M8.57913 50.0356C10.7088 49.4168 15.9281 47.9141 16.468 47.5016C17.1579 46.9712 23.5769 42.1094 28.0163 40.4593C35.1852 37.778 50.1231 36.7761 52.2228 36.1868C54.9524 35.4207 62.4512 31.0304 62.8412 30.7062C63.2311 30.3821 64.011 29.8223 64.011 29.8223C64.011 29.8223 61.9413 35.6564 58.5518 37.7485C55.5823 39.6048 42.9841 39.045 40.3145 39.3986C35.3952 40.0468 27.4164 44.7024 20.2774 51.391C19.4675 52.1277 15.0282 53.8072 13.7384 54.2787L8.57913 50.0356Z" fill="#1D053D"/>
<path d="M15.4175 55.6378C16.7074 55.2548 20.2469 54.1645 21.1767 53.4279C22.3466 52.5145 31.2253 45.8847 36.6845 44.1168C43.1336 42.0542 58.9413 42.2015 58.9413 42.2015C58.9413 42.2015 44.3934 44.9713 39.8941 47.1812C35.3947 49.4206 25.9461 58.4665 24.9262 58.7611C24.0863 58.9969 21.5967 59.7335 20.7568 59.9987L15.4175 55.6378Z" fill="#1D053D"/>
</svg>
