<svg width="14" height="14" viewBox="0 0 14 14" fill="none" xmlns="http://www.w3.org/2000/svg">
<path fill-rule="evenodd" clip-rule="evenodd" d="M6.99961 13.3996C10.5342 13.3996 13.3996 10.5342 13.3996 6.99961C13.3996 3.46499 10.5342 0.599609 6.99961 0.599609C3.46499 0.599609 0.599609 3.46499 0.599609 6.99961C0.599609 10.5342 3.46499 13.3996 6.99961 13.3996ZM7.56529 5.16529C7.87771 4.85287 7.87771 4.34634 7.56529 4.03392C7.25287 3.7215 6.74634 3.7215 6.43392 4.03392L4.03392 6.43392C3.7215 6.74634 3.7215 7.25288 4.03392 7.56529L6.43392 9.96529C6.74634 10.2777 7.25288 10.2777 7.56529 9.96529C7.87771 9.65287 7.87771 9.14634 7.56529 8.83392L6.53098 7.79961H9.39961C9.84144 7.79961 10.1996 7.44144 10.1996 6.99961C10.1996 6.55778 9.84144 6.19961 9.39961 6.19961L6.53098 6.19961L7.56529 5.16529Z" fill="#735AA2"/>
</svg>
