<svg width="26" height="26" viewBox="0 0 26 26" fill="none" xmlns="http://www.w3.org/2000/svg">
    <path d="M18.8697 10.1324H17.0241V4.39706C17.0241 3.76618 16.5018 3.25 15.8634 3.25H11.2206C10.5822 3.25 10.0598 3.76618 10.0598 4.39706V10.1324H8.21431C7.18128 10.1324 6.65896 11.3712 7.39021 12.0938L12.7179 17.3588C13.1706 17.8062 13.9018 17.8062 14.3545 17.3588L19.6822 12.0938C20.4134 11.3712 19.9027 10.1324 18.8697 10.1324ZM5.41699 21.6029C5.41699 22.2338 5.93931 22.75 6.57771 22.75H20.5063C21.1447 22.75 21.667 22.2338 21.667 21.6029C21.667 20.9721 21.1447 20.4559 20.5063 20.4559H6.57771C5.93931 20.4559 5.41699 20.9721 5.41699 21.6029Z" fill="#1D053D"/>
</svg>
