<svg width="26" height="26" viewBox="0 0 26 26" fill="none" xmlns="http://www.w3.org/2000/svg">
    <path d="M18.7775 16.9452C18.0456 16.9452 17.3908 17.2341 16.89 17.6867L10.0241 13.6904C10.0723 13.4689 10.1108 13.2475 10.1108 13.0163C10.1108 12.7852 10.0723 12.5638 10.0241 12.3423L16.813 8.3845C17.333 8.86598 18.0167 9.1645 18.7775 9.1645C20.376 9.1645 21.6663 7.87413 21.6663 6.27561C21.6663 4.67709 20.376 3.38672 18.7775 3.38672C17.1789 3.38672 15.8886 4.67709 15.8886 6.27561C15.8886 6.50672 15.9271 6.7282 15.9752 6.94968L9.18634 10.9075C8.66634 10.426 7.98264 10.1275 7.2219 10.1275C5.62338 10.1275 4.33301 11.4178 4.33301 13.0163C4.33301 14.6149 5.62338 15.9052 7.2219 15.9052C7.98264 15.9052 8.66634 15.6067 9.18634 15.1252L16.0426 19.1312C15.9945 19.3334 15.9656 19.5452 15.9656 19.7571C15.9656 21.3075 17.2271 22.5689 18.7775 22.5689C20.3278 22.5689 21.5893 21.3075 21.5893 19.7571C21.5893 18.2067 20.3278 16.9452 18.7775 16.9452Z" fill="#1D053D"/>
</svg>
