<svg width="22" height="18" viewBox="0 0 22 18" fill="none" xmlns="http://www.w3.org/2000/svg">
<path d="M1.31 8.242C1.27324 8.09462 1.27054 7.9408 1.3021 7.79222C1.33366 7.64363 1.39866 7.50419 1.49215 7.38448C1.58565 7.26477 1.70519 7.16792 1.8417 7.10131C1.97821 7.03469 2.1281 7.00004 2.28 7H19.72C19.8719 7.00004 20.0218 7.03469 20.1583 7.10131C20.2948 7.16792 20.4143 7.26477 20.5078 7.38448C20.6013 7.50419 20.6663 7.64363 20.6979 7.79222C20.7295 7.9408 20.7268 8.09462 20.69 8.242L18.879 15.485C18.7708 15.9177 18.5212 16.3018 18.1697 16.5763C17.8182 16.8508 17.385 16.9999 16.939 17H5.061C4.61501 16.9999 4.18183 16.8508 3.83033 16.5763C3.47882 16.3018 3.22915 15.9177 3.121 15.485L1.31 8.243V8.242Z" stroke="#1D053D" stroke-width="2" stroke-linejoin="round"/>
<path d="M8 11V13" stroke="#1D053D" stroke-width="2" stroke-linecap="round"/>
<path d="M14 11V13" stroke="#1D053D" stroke-width="2" stroke-linecap="round"/>
<path d="M5 7L9 1" stroke="#1D053D" stroke-width="2" stroke-linecap="round"/>
<path d="M17 7L13 1" stroke="#1D053D" stroke-width="2" stroke-linecap="round"/>
</svg>
